<?xml version="1.0" standalone="no"?>
<!DOCTYPE svg PUBLIC "-//W3C//DTD SVG 20010904//EN"
 "http://www.w3.org/TR/2001/REC-SVG-20010904/DTD/svg10.dtd">
<svg version="1.0" xmlns="http://www.w3.org/2000/svg"
 width="200.000000pt" height="200.000000pt" viewBox="0 0 200.000000 200.000000"
 preserveAspectRatio="xMidYMid meet">
<metadata>
Created by potrace 1.11, written by Peter Selinger 2001-2013
</metadata>
<g transform="translate(0.000000,200.000000) scale(0.100000,-0.100000)"
fill="#000000" stroke="none">
<path d="M0 1000 l0 -1000 1000 0 1000 0 0 1000 0 1000 -1000 0 -1000 0 0
-1000z m440 775 c9 -11 6 -30 -19 -95 -54 -139 -76 -250 -50 -250 6 0 39 25
74 55 62 54 105 71 105 39 0 -9 -9 -18 -20 -21 -14 -4 -20 -14 -20 -35 0 -28
2 -29 31 -23 22 5 29 4 25 -4 -4 -6 -14 -11 -23 -11 -9 0 -30 -16 -47 -35 -38
-42 -70 -50 -74 -18 -2 16 5 26 27 38 24 12 31 22 31 46 l0 31 -61 -53 c-58
-50 -62 -52 -75 -34 -8 10 -14 33 -15 49 0 29 -2 27 -24 -21 -14 -31 -30 -53
-39 -53 -41 0 -73 157 -43 204 22 33 49 40 90 22 l35 -14 11 44 c17 66 51 154
60 154 5 0 14 -7 21 -15z m125 -485 c0 -33 -2 -35 -35 -35 -29 0 -36 4 -38 23
-6 40 5 54 40 50 30 -3 33 -6 33 -38z m-169 -25 c74 -31 81 -143 11 -185 -20
-13 -50 -20 -79 -20 l-48 0 0 -65 0 -65 -35 0 -35 0 0 175 0 175 75 0 c44 0
90 -6 111 -15z m164 -205 l0 -130 -30 0 -30 0 0 130 0 130 30 0 30 0 0 -130z
m211 114 c32 -16 59 -66 59 -109 0 -25 -1 -25 -80 -25 -64 0 -80 -3 -80 -15 0
-8 12 -22 26 -32 21 -14 31 -15 56 -5 29 11 68 -1 68 -20 0 -14 -59 -38 -95
-38 -82 0 -121 50 -113 145 8 96 79 141 159 99z m163 7 c4 -5 20 -5 41 2 26 8
42 7 61 -2 l27 -12 -23 -24 c-17 -18 -30 -23 -47 -19 -43 11 -53 -10 -53 -108
l0 -89 -31 3 -31 3 1 123 c0 67 0 124 1 127 0 9 49 5 54 -4z m305 -2 c17 -6
31 -14 31 -19 0 -19 -36 -35 -79 -35 -34 0 -46 -4 -46 -15 0 -10 16 -17 50
-23 62 -10 85 -30 85 -74 0 -55 -36 -83 -108 -83 -42 0 -66 5 -82 18 -21 17
-21 18 -3 34 15 14 24 15 61 5 36 -9 45 -9 58 5 23 23 12 34 -42 42 -59 8 -84
29 -84 71 0 65 78 102 159 74z m264 -29 c24 -27 27 -38 27 -96 0 -59 -3 -68
-29 -95 -24 -24 -38 -29 -76 -29 -38 0 -52 5 -76 29 -26 26 -29 36 -29 90 0
74 13 105 54 126 44 22 95 13 129 -25z m139 29 c2 -7 12 -7 30 1 32 15 71 7
98 -20 17 -17 20 -34 20 -125 l0 -105 -30 0 -30 0 0 83 c0 97 -12 124 -53 113
-26 -6 -26 -8 -29 -99 l-3 -92 -32 -3 -33 -3 0 124 c0 68 3 127 7 130 10 11
51 8 55 -4z m-890 -461 c3 -160 3 -163 26 -166 34 -5 28 -32 -7 -32 -54 0 -61
25 -61 202 0 151 1 158 20 158 18 0 20 -8 22 -162z m140 0 c3 -160 3 -163 26
-166 12 -2 22 -10 22 -18 0 -20 -49 -18 -72 3 -16 14 -18 34 -18 180 0 156 1
163 20 163 18 0 20 -8 22 -162z m-508 33 c14 -15 14 -20 3 -30 -11 -9 -17 -8
-27 4 -18 21 -66 19 -90 -5 -28 -28 -28 -117 0 -148 24 -26 72 -29 90 -7 10
12 16 13 27 4 25 -21 -13 -49 -66 -49 -74 1 -111 42 -111 125 0 83 37 124 111
125 32 0 51 -6 63 -19z m223 4 c29 -20 47 -87 38 -141 -8 -58 -45 -94 -97 -94
-52 0 -77 15 -94 55 -26 64 -10 159 33 184 27 16 95 13 120 -4z m529 0 c26
-18 47 -65 42 -97 -3 -22 -7 -23 -83 -25 -77 -1 -80 -2 -77 -24 6 -52 59 -74
117 -47 34 15 45 1 16 -23 -32 -26 -100 -25 -134 2 -53 41 -58 143 -10 200 20
24 33 29 67 29 23 0 51 -7 62 -15z m239 5 c3 -5 11 -10 16 -10 6 0 7 5 4 10
-3 6 3 10 14 10 20 0 21 -5 21 -150 l0 -150 -28 -32 c-25 -27 -36 -31 -76 -31
-53 0 -89 24 -68 45 9 9 15 9 24 0 17 -17 68 -15 90 5 11 9 18 30 18 50 0 30
-2 33 -19 23 -34 -18 -80 -12 -106 14 -43 43 -45 148 -4 201 16 20 29 25 64
25 24 0 47 -4 50 -10z m276 0 c25 -14 49 -62 49 -100 l0 -31 -82 2 c-82 2 -83
1 -80 -22 5 -50 73 -76 118 -44 22 15 34 11 34 -10 0 -17 -45 -35 -90 -35 -74
0 -120 75 -100 163 12 57 45 87 92 87 22 0 48 -5 59 -10z"/>
<path d="M249 1546 c-13 -28 -5 -105 14 -130 11 -15 17 -8 44 53 l31 71 -21
15 c-31 22 -56 18 -68 -9z"/>
<path d="M450 1395 c-7 -9 -10 -18 -7 -22 8 -7 37 15 37 28 0 14 -16 11 -30
-6z"/>
<path d="M280 1170 l0 -50 38 0 c41 0 72 23 72 53 0 23 -39 47 -77 47 -33 0
-33 0 -33 -50z"/>
<path d="M681 1111 c-16 -30 -15 -31 35 -31 41 0 45 2 42 23 -4 31 -62 37 -77
8z"/>
<path d="M1390 1111 c-5 -11 -10 -34 -10 -51 0 -44 17 -70 45 -70 29 0 45 26
45 74 0 57 -56 91 -80 47z"/>
<path d="M500 720 c-15 -15 -20 -33 -20 -75 0 -62 22 -95 63 -95 47 0 62 23
62 95 0 54 -4 69 -19 81 -28 20 -63 17 -86 -6z"/>
<path d="M1044 732 c-13 -8 -34 -46 -34 -61 0 -7 26 -11 65 -11 56 0 65 3 65
18 0 46 -59 79 -96 54z"/>
<path d="M1295 726 c-13 -9 -20 -30 -23 -69 -4 -50 -2 -58 22 -82 28 -28 60
-27 84 3 20 25 16 126 -6 145 -22 21 -52 22 -77 3z"/>
<path d="M1564 732 c-17 -11 -36 -51 -29 -62 3 -6 33 -10 66 -10 55 0 59 1 59
23 0 43 -60 73 -96 49z"/>
</g>
</svg>
